<svg xmlns="http://www.w3.org/2000/svg" viewBox="0 0 32 32" width="32" height="32">
  <rect width="32" height="32" rx="7" fill="#0A0A0B"/>
  <path d="M16 5 L25 10 V21 L16 26 L7 21 V10 Z" fill="none" stroke="#2E2E34" stroke-width="1"/>
  <g stroke="#3A3A42" stroke-width="0.9">
    <line x1="16" y1="16" x2="16" y2="8.2"/><line x1="16" y1="16" x2="23" y2="12.2"/>
    <line x1="16" y1="16" x2="23" y2="19.8"/><line x1="16" y1="16" x2="16" y2="23.8"/>
    <line x1="16" y1="16" x2="9" y2="19.8"/><line x1="16" y1="16" x2="9" y2="12.2"/>
  </g>
  <circle cx="16" cy="16" r="2.4" fill="#F4F4F5"/>
  <circle cx="16" cy="8.2" r="1.8" fill="#3ECF8E"/>
  <circle cx="23" cy="12.2" r="1.8" fill="#F5B544"/>
  <circle cx="23" cy="19.8" r="1.8" fill="#45D6E8"/>
  <circle cx="16" cy="23.8" r="1.8" fill="#5B9DFF"/>
  <circle cx="9" cy="19.8" r="1.8" fill="#F4F4F5"/>
  <circle cx="9" cy="12.2" r="1.8" fill="#F2555A"/>
</svg>
